<mxfile host="app.diagrams.net" modified="2023-05-08T15:46:51.721Z" agent="Mozilla/5.0 (Windows NT 10.0; Win64; x64) AppleWebKit/537.36 (KHTML, like Gecko) Chrome/112.0.0.0 Safari/537.36" etag="1lng7wyGXH583MHdK0QJ" version="21.2.9" type="device">
  <diagram id="r1Wt61H-pF44WmcCFTPb" name="Page-2">
    <mxGraphModel dx="2950" dy="982" grid="1" gridSize="10" guides="1" tooltips="1" connect="1" arrows="1" fold="1" page="1" pageScale="1" pageWidth="850" pageHeight="1100" math="0" shadow="0">
      <root>
        <mxCell id="0" />
        <mxCell id="1" parent="0" />
        <mxCell id="I6mruvfcVdSGAULZI7gl-67" value="" style="html=1;points=[];perimeter=orthogonalPerimeter;outlineConnect=0;targetShapes=umlLifeline;portConstraint=eastwest;newEdgeStyle={&quot;edgeStyle&quot;:&quot;elbowEdgeStyle&quot;,&quot;elbow&quot;:&quot;vertical&quot;,&quot;curved&quot;:0,&quot;rounded&quot;:0};" parent="1" vertex="1">
          <mxGeometry x="1036.5" y="1604" width="10" height="166" as="geometry" />
        </mxCell>
        <mxCell id="I6mruvfcVdSGAULZI7gl-63" value="" style="html=1;points=[];perimeter=orthogonalPerimeter;outlineConnect=0;targetShapes=umlLifeline;portConstraint=eastwest;newEdgeStyle={&quot;edgeStyle&quot;:&quot;elbowEdgeStyle&quot;,&quot;elbow&quot;:&quot;vertical&quot;,&quot;curved&quot;:0,&quot;rounded&quot;:0};" parent="1" vertex="1">
          <mxGeometry x="917.5" y="1520" width="10" height="280" as="geometry" />
        </mxCell>
        <mxCell id="I6mruvfcVdSGAULZI7gl-61" value="" style="html=1;points=[];perimeter=orthogonalPerimeter;outlineConnect=0;targetShapes=umlLifeline;portConstraint=eastwest;newEdgeStyle={&quot;edgeStyle&quot;:&quot;elbowEdgeStyle&quot;,&quot;elbow&quot;:&quot;vertical&quot;,&quot;curved&quot;:0,&quot;rounded&quot;:0};" parent="1" vertex="1">
          <mxGeometry x="752.5" y="1363" width="10" height="67" as="geometry" />
        </mxCell>
        <mxCell id="I6mruvfcVdSGAULZI7gl-57" value="" style="html=1;points=[];perimeter=orthogonalPerimeter;outlineConnect=0;targetShapes=umlLifeline;portConstraint=eastwest;newEdgeStyle={&quot;edgeStyle&quot;:&quot;elbowEdgeStyle&quot;,&quot;elbow&quot;:&quot;vertical&quot;,&quot;curved&quot;:0,&quot;rounded&quot;:0};" parent="1" vertex="1">
          <mxGeometry x="515" y="1164" width="10" height="166" as="geometry" />
        </mxCell>
        <mxCell id="d4C9mOWNk2J7oA7FeeJl-6" value="" style="endArrow=none;dashed=1;html=1;rounded=0;" parent="1" edge="1">
          <mxGeometry width="50" height="50" relative="1" as="geometry">
            <mxPoint x="400" y="710" as="sourcePoint" />
            <mxPoint x="400" y="1920" as="targetPoint" />
          </mxGeometry>
        </mxCell>
        <mxCell id="I6mruvfcVdSGAULZI7gl-56" value="" style="html=1;points=[];perimeter=orthogonalPerimeter;outlineConnect=0;targetShapes=umlLifeline;portConstraint=eastwest;newEdgeStyle={&quot;edgeStyle&quot;:&quot;elbowEdgeStyle&quot;,&quot;elbow&quot;:&quot;vertical&quot;,&quot;curved&quot;:0,&quot;rounded&quot;:0};" parent="1" vertex="1">
          <mxGeometry x="395.5" y="1080" width="10" height="270" as="geometry" />
        </mxCell>
        <mxCell id="I6mruvfcVdSGAULZI7gl-54" value="" style="html=1;points=[];perimeter=orthogonalPerimeter;outlineConnect=0;targetShapes=umlLifeline;portConstraint=eastwest;newEdgeStyle={&quot;edgeStyle&quot;:&quot;elbowEdgeStyle&quot;,&quot;elbow&quot;:&quot;vertical&quot;,&quot;curved&quot;:0,&quot;rounded&quot;:0};" parent="1" vertex="1">
          <mxGeometry x="256.5" y="960" width="10" height="40" as="geometry" />
        </mxCell>
        <mxCell id="I6mruvfcVdSGAULZI7gl-14" value="" style="endArrow=none;dashed=1;html=1;rounded=0;entryX=0.5;entryY=1;entryDx=0;entryDy=0;" parent="1" target="tIvDFnSH6BUCY3AO30Lf-23" edge="1">
          <mxGeometry width="50" height="50" relative="1" as="geometry">
            <mxPoint x="120" y="1920" as="sourcePoint" />
            <mxPoint x="120" y="720" as="targetPoint" />
          </mxGeometry>
        </mxCell>
        <mxCell id="I6mruvfcVdSGAULZI7gl-51" value="" style="html=1;points=[];perimeter=orthogonalPerimeter;outlineConnect=0;targetShapes=umlLifeline;portConstraint=eastwest;newEdgeStyle={&quot;edgeStyle&quot;:&quot;elbowEdgeStyle&quot;,&quot;elbow&quot;:&quot;vertical&quot;,&quot;curved&quot;:0,&quot;rounded&quot;:0};" parent="1" vertex="1">
          <mxGeometry x="115" y="800" width="10" height="1100" as="geometry" />
        </mxCell>
        <mxCell id="I6mruvfcVdSGAULZI7gl-49" value="" style="html=1;points=[];perimeter=orthogonalPerimeter;outlineConnect=0;targetShapes=umlLifeline;portConstraint=eastwest;newEdgeStyle={&quot;edgeStyle&quot;:&quot;elbowEdgeStyle&quot;,&quot;elbow&quot;:&quot;vertical&quot;,&quot;curved&quot;:0,&quot;rounded&quot;:0};" parent="1" vertex="1">
          <mxGeometry x="-5" y="760" width="10" height="60" as="geometry" />
        </mxCell>
        <mxCell id="d4C9mOWNk2J7oA7FeeJl-1" value="Ξεναγός&lt;br&gt;" style="shape=umlActor;verticalLabelPosition=bottom;verticalAlign=top;html=1;" parent="1" vertex="1">
          <mxGeometry x="-140" y="645.76" width="30" height="60" as="geometry" />
        </mxCell>
        <mxCell id="d4C9mOWNk2J7oA7FeeJl-2" value="" style="endArrow=none;dashed=1;html=1;rounded=0;" parent="1" edge="1">
          <mxGeometry width="50" height="50" relative="1" as="geometry">
            <mxPoint x="-120" y="1920" as="sourcePoint" />
            <mxPoint x="-120" y="730" as="targetPoint" />
          </mxGeometry>
        </mxCell>
        <mxCell id="vdlAHe8VVg6j90n1sw96-1" value="addQuiz()" style="text;html=1;strokeColor=none;fillColor=none;align=center;verticalAlign=middle;whiteSpace=wrap;rounded=0;" parent="1" vertex="1">
          <mxGeometry x="-87" y="730" width="60" height="30" as="geometry" />
        </mxCell>
        <mxCell id="vdlAHe8VVg6j90n1sw96-2" value="" style="endArrow=classic;html=1;rounded=0;" parent="1" edge="1">
          <mxGeometry width="50" height="50" relative="1" as="geometry">
            <mxPoint x="-120" y="760" as="sourcePoint" />
            <mxPoint y="760" as="targetPoint" />
          </mxGeometry>
        </mxCell>
        <mxCell id="WZKpFoSFYxHu0MUfYj_s-3" value="show()" style="text;html=1;strokeColor=none;fillColor=none;align=center;verticalAlign=middle;whiteSpace=wrap;rounded=0;" parent="1" vertex="1">
          <mxGeometry x="30" y="770" width="60" height="30" as="geometry" />
        </mxCell>
        <mxCell id="WHX5HTuEqyPUU4s6z_Le-4" value="validateQuizForm()" style="text;html=1;strokeColor=none;fillColor=none;align=center;verticalAlign=middle;whiteSpace=wrap;rounded=0;" parent="1" vertex="1">
          <mxGeometry x="180" y="890" width="40" height="20" as="geometry" />
        </mxCell>
        <mxCell id="HoQE8Fh-CWHNodNy90f9-3" value="showMessage()" style="text;html=1;strokeColor=none;fillColor=none;align=center;verticalAlign=middle;whiteSpace=wrap;rounded=0;" parent="1" vertex="1">
          <mxGeometry x="162" y="940" width="40" height="20" as="geometry" />
        </mxCell>
        <mxCell id="lzpFfHtrdgQ-HOFMMAU_-1" value="" style="endArrow=classic;html=1;rounded=0;" parent="1" source="I6mruvfcVdSGAULZI7gl-51" edge="1">
          <mxGeometry width="50" height="50" relative="1" as="geometry">
            <mxPoint x="130" y="1080" as="sourcePoint" />
            <mxPoint x="400" y="1079" as="targetPoint" />
          </mxGeometry>
        </mxCell>
        <mxCell id="lzpFfHtrdgQ-HOFMMAU_-2" value="show()" style="text;html=1;strokeColor=none;fillColor=none;align=center;verticalAlign=middle;whiteSpace=wrap;rounded=0;" parent="1" vertex="1">
          <mxGeometry x="297" y="1055" width="60" height="30" as="geometry" />
        </mxCell>
        <mxCell id="piDVzGv5HvFsnrZfWIui-5" value="validateFileSize()" style="text;html=1;strokeColor=none;fillColor=none;align=center;verticalAlign=middle;whiteSpace=wrap;rounded=0;" parent="1" vertex="1">
          <mxGeometry x="427" y="1134" width="60" height="30" as="geometry" />
        </mxCell>
        <mxCell id="iHAAW6kJqiDbdlnvd43Z-2" value="" style="endArrow=classic;html=1;rounded=0;dashed=1;" parent="1" target="I6mruvfcVdSGAULZI7gl-51" edge="1">
          <mxGeometry width="50" height="50" relative="1" as="geometry">
            <mxPoint x="520" y="1200" as="sourcePoint" />
            <mxPoint x="120" y="1200" as="targetPoint" />
          </mxGeometry>
        </mxCell>
        <mxCell id="iHAAW6kJqiDbdlnvd43Z-3" value="invalidSize" style="text;html=1;strokeColor=none;fillColor=none;align=center;verticalAlign=middle;whiteSpace=wrap;rounded=0;" parent="1" vertex="1">
          <mxGeometry x="306" y="1176" width="60" height="30" as="geometry" />
        </mxCell>
        <mxCell id="iHAAW6kJqiDbdlnvd43Z-5" value="showMessage()" style="text;html=1;strokeColor=none;fillColor=none;align=center;verticalAlign=middle;whiteSpace=wrap;rounded=0;" parent="1" vertex="1">
          <mxGeometry x="560" y="1217" width="40" height="20" as="geometry" />
        </mxCell>
        <mxCell id="iHAAW6kJqiDbdlnvd43Z-6" value="" style="endArrow=classic;html=1;rounded=0;dashed=1;" parent="1" target="I6mruvfcVdSGAULZI7gl-51" edge="1">
          <mxGeometry width="50" height="50" relative="1" as="geometry">
            <mxPoint x="520" y="1320" as="sourcePoint" />
            <mxPoint x="120" y="1320" as="targetPoint" />
          </mxGeometry>
        </mxCell>
        <mxCell id="iHAAW6kJqiDbdlnvd43Z-7" value="validSize" style="text;html=1;strokeColor=none;fillColor=none;align=center;verticalAlign=middle;whiteSpace=wrap;rounded=0;" parent="1" vertex="1">
          <mxGeometry x="310" y="1294" width="60" height="30" as="geometry" />
        </mxCell>
        <mxCell id="qD0XZBCb95Pvql_zSsY5-1" value="" style="endArrow=none;dashed=1;html=1;rounded=0;entryX=0.5;entryY=1;entryDx=0;entryDy=0;" parent="1" source="I6mruvfcVdSGAULZI7gl-61" target="tIvDFnSH6BUCY3AO30Lf-27" edge="1">
          <mxGeometry width="50" height="50" relative="1" as="geometry">
            <mxPoint x="760" y="1920" as="sourcePoint" />
            <mxPoint x="760" y="730" as="targetPoint" />
          </mxGeometry>
        </mxCell>
        <mxCell id="qD0XZBCb95Pvql_zSsY5-2" value="" style="endArrow=classic;html=1;rounded=0;" parent="1" source="I6mruvfcVdSGAULZI7gl-51" edge="1">
          <mxGeometry width="50" height="50" relative="1" as="geometry">
            <mxPoint x="120" y="1360" as="sourcePoint" />
            <mxPoint x="750" y="1360" as="targetPoint" />
          </mxGeometry>
        </mxCell>
        <mxCell id="qD0XZBCb95Pvql_zSsY5-3" value="show()" style="text;html=1;strokeColor=none;fillColor=none;align=center;verticalAlign=middle;whiteSpace=wrap;rounded=0;" parent="1" vertex="1">
          <mxGeometry x="671" y="1333" width="60" height="30" as="geometry" />
        </mxCell>
        <mxCell id="ybbPsVv8MOHcRGadtYmD-1" value="" style="endArrow=classic;html=1;rounded=0;" parent="1" edge="1">
          <mxGeometry width="50" height="50" relative="1" as="geometry">
            <mxPoint x="-120" y="1400" as="sourcePoint" />
            <mxPoint x="750" y="1400" as="targetPoint" />
          </mxGeometry>
        </mxCell>
        <mxCell id="xqeanRFliSCPuucKXB-T-1" value="" style="endArrow=classic;html=1;rounded=0;entryX=0;entryY=0.5;entryDx=0;entryDy=0;" parent="1" source="I6mruvfcVdSGAULZI7gl-51" target="tIvDFnSH6BUCY3AO30Lf-28" edge="1">
          <mxGeometry width="50" height="50" relative="1" as="geometry">
            <mxPoint x="120" y="1440" as="sourcePoint" />
            <mxPoint x="880" y="1370" as="targetPoint" />
          </mxGeometry>
        </mxCell>
        <mxCell id="xqeanRFliSCPuucKXB-T-2" value="createQuiz()" style="text;html=1;strokeColor=none;fillColor=none;align=center;verticalAlign=middle;whiteSpace=wrap;rounded=0;" parent="1" vertex="1">
          <mxGeometry x="795" y="1412" width="60" height="30" as="geometry" />
        </mxCell>
        <mxCell id="FKvFMUC7jG-RLLwQolnt-1" value="" style="endArrow=classic;html=1;rounded=0;" parent="1" source="I6mruvfcVdSGAULZI7gl-51" edge="1">
          <mxGeometry width="50" height="50" relative="1" as="geometry">
            <mxPoint x="115.7333984375" y="1600" as="sourcePoint" />
            <mxPoint x="1040" y="1600" as="targetPoint" />
          </mxGeometry>
        </mxCell>
        <mxCell id="FKvFMUC7jG-RLLwQolnt-2" value="show()" style="text;html=1;strokeColor=none;fillColor=none;align=center;verticalAlign=middle;whiteSpace=wrap;rounded=0;" parent="1" vertex="1">
          <mxGeometry x="953" y="1574" width="60" height="30" as="geometry" />
        </mxCell>
        <mxCell id="PcmZX1TJ8_jsBlJZNgSC-1" value="" style="endArrow=none;dashed=1;html=1;rounded=0;" parent="1" source="I6mruvfcVdSGAULZI7gl-69" edge="1">
          <mxGeometry width="50" height="50" relative="1" as="geometry">
            <mxPoint x="1160" y="1920" as="sourcePoint" />
            <mxPoint x="1160" y="710" as="targetPoint" />
          </mxGeometry>
        </mxCell>
        <mxCell id="PcmZX1TJ8_jsBlJZNgSC-5" value="quizTourConnection()" style="text;html=1;strokeColor=none;fillColor=none;align=center;verticalAlign=middle;whiteSpace=wrap;rounded=0;" parent="1" vertex="1">
          <mxGeometry x="951" y="1732" width="60" height="30" as="geometry" />
        </mxCell>
        <mxCell id="Mb7xNK57P822YQSnm3hh-2" value="upload()" style="text;html=1;strokeColor=none;fillColor=none;align=center;verticalAlign=middle;whiteSpace=wrap;rounded=0;" parent="1" vertex="1">
          <mxGeometry x="810" y="1770" width="60" height="30" as="geometry" />
        </mxCell>
        <mxCell id="tIvDFnSH6BUCY3AO30Lf-3" value="showMessage()" style="text;html=1;strokeColor=none;fillColor=none;align=center;verticalAlign=middle;whiteSpace=wrap;rounded=0;" parent="1" vertex="1">
          <mxGeometry x="1190" y="1810" width="60" height="30" as="geometry" />
        </mxCell>
        <mxCell id="tIvDFnSH6BUCY3AO30Lf-5" value="notify()" style="text;html=1;strokeColor=none;fillColor=none;align=center;verticalAlign=middle;whiteSpace=wrap;rounded=0;" parent="1" vertex="1">
          <mxGeometry x="1320" y="1853" width="60" height="30" as="geometry" />
        </mxCell>
        <mxCell id="piDVzGv5HvFsnrZfWIui-3" value="" style="endArrow=classic;html=1;rounded=0;" parent="1" source="I6mruvfcVdSGAULZI7gl-51" edge="1">
          <mxGeometry width="50" height="50" relative="1" as="geometry">
            <mxPoint x="120" y="1160" as="sourcePoint" />
            <mxPoint x="520" y="1160" as="targetPoint" />
          </mxGeometry>
        </mxCell>
        <mxCell id="tIvDFnSH6BUCY3AO30Lf-20" value="" style="endArrow=none;dashed=1;html=1;rounded=0;" parent="1" edge="1">
          <mxGeometry width="50" height="50" relative="1" as="geometry">
            <mxPoint x="760" y="1398" as="sourcePoint" />
            <mxPoint x="760" y="1400" as="targetPoint" />
          </mxGeometry>
        </mxCell>
        <mxCell id="tIvDFnSH6BUCY3AO30Lf-23" value="&lt;b&gt;:NewQuizController&lt;/b&gt;" style="html=1;whiteSpace=wrap;" parent="1" vertex="1">
          <mxGeometry x="60" y="660" width="120" height="50" as="geometry" />
        </mxCell>
        <mxCell id="tIvDFnSH6BUCY3AO30Lf-24" value="InvalidSizeMessage" style="html=1;whiteSpace=wrap;" parent="1" vertex="1">
          <mxGeometry x="580" y="669.5" width="120" height="40" as="geometry" />
        </mxCell>
        <mxCell id="tIvDFnSH6BUCY3AO30Lf-25" value="UploadFilesView" style="html=1;whiteSpace=wrap;" parent="1" vertex="1">
          <mxGeometry x="340" y="670" width="115" height="40" as="geometry" />
        </mxCell>
        <mxCell id="tIvDFnSH6BUCY3AO30Lf-27" value="QuizPreView" style="html=1;whiteSpace=wrap;" parent="1" vertex="1">
          <mxGeometry x="705" y="670" width="105" height="40" as="geometry" />
        </mxCell>
        <mxCell id="tIvDFnSH6BUCY3AO30Lf-28" value="&lt;b&gt;New:Quiz&lt;/b&gt;" style="html=1;whiteSpace=wrap;" parent="1" vertex="1">
          <mxGeometry x="880" y="1420" width="85" height="40" as="geometry" />
        </mxCell>
        <mxCell id="tIvDFnSH6BUCY3AO30Lf-29" value="&lt;b&gt;:ToursHistoryController&lt;/b&gt;" style="html=1;whiteSpace=wrap;" parent="1" vertex="1">
          <mxGeometry x="960" y="670" width="134" height="39.5" as="geometry" />
        </mxCell>
        <mxCell id="tIvDFnSH6BUCY3AO30Lf-30" value="&lt;b&gt;:Tour&lt;/b&gt;" style="html=1;whiteSpace=wrap;" parent="1" vertex="1">
          <mxGeometry x="1102" y="669" width="110" height="40" as="geometry" />
        </mxCell>
        <mxCell id="tIvDFnSH6BUCY3AO30Lf-31" value="&lt;b&gt;:Simple User&lt;/b&gt;" style="html=1;whiteSpace=wrap;" parent="1" vertex="1">
          <mxGeometry x="1400" y="1850" width="110" height="50" as="geometry" />
        </mxCell>
        <mxCell id="yxaQM7plfBaksZpxO9Yr-2" value="store()" style="text;html=1;strokeColor=none;fillColor=none;align=center;verticalAlign=middle;whiteSpace=wrap;rounded=0;" parent="1" vertex="1">
          <mxGeometry x="965" y="1530" width="60" height="30" as="geometry" />
        </mxCell>
        <mxCell id="yxaQM7plfBaksZpxO9Yr-8" value="Missing Info" style="text;html=1;strokeColor=none;fillColor=none;align=center;verticalAlign=middle;whiteSpace=wrap;rounded=0;fontStyle=0" parent="1" vertex="1">
          <mxGeometry x="19" y="950" width="96" height="20" as="geometry" />
        </mxCell>
        <mxCell id="yxaQM7plfBaksZpxO9Yr-9" value="Valid Info" style="text;html=1;strokeColor=none;fillColor=none;align=center;verticalAlign=middle;whiteSpace=wrap;rounded=0;fontStyle=0" parent="1" vertex="1">
          <mxGeometry x="9" y="1063" width="116" height="17" as="geometry" />
        </mxCell>
        <mxCell id="yxaQM7plfBaksZpxO9Yr-12" value="Valid file size" style="text;html=1;strokeColor=none;fillColor=none;align=center;verticalAlign=middle;whiteSpace=wrap;rounded=0;" parent="1" vertex="1">
          <mxGeometry x="39" y="1333" width="66" height="10" as="geometry" />
        </mxCell>
        <mxCell id="yxaQM7plfBaksZpxO9Yr-13" value="Invalid file size" style="text;html=1;strokeColor=none;fillColor=none;align=center;verticalAlign=middle;whiteSpace=wrap;rounded=0;" parent="1" vertex="1">
          <mxGeometry x="46" y="1216" width="62" height="10" as="geometry" />
        </mxCell>
        <mxCell id="I6mruvfcVdSGAULZI7gl-5" value="" style="endArrow=none;dashed=1;html=1;rounded=0;entryX=0.5;entryY=1;entryDx=0;entryDy=0;" parent="1" source="I6mruvfcVdSGAULZI7gl-63" target="tIvDFnSH6BUCY3AO30Lf-28" edge="1">
          <mxGeometry width="50" height="50" relative="1" as="geometry">
            <mxPoint x="920" y="1920" as="sourcePoint" />
            <mxPoint x="900" y="1615" as="targetPoint" />
          </mxGeometry>
        </mxCell>
        <mxCell id="I6mruvfcVdSGAULZI7gl-11" value="UserFiles" style="html=1;whiteSpace=wrap;" parent="1" vertex="1">
          <mxGeometry x="467.5" y="669.5" width="105" height="40" as="geometry" />
        </mxCell>
        <mxCell id="I6mruvfcVdSGAULZI7gl-12" value="&lt;b&gt;:MenuController&lt;/b&gt;" style="html=1;whiteSpace=wrap;" parent="1" vertex="1">
          <mxGeometry x="-55" y="660" width="110" height="50" as="geometry" />
        </mxCell>
        <mxCell id="I6mruvfcVdSGAULZI7gl-13" value="" style="endArrow=none;dashed=1;html=1;rounded=0;" parent="1" source="I6mruvfcVdSGAULZI7gl-49" edge="1">
          <mxGeometry width="50" height="50" relative="1" as="geometry">
            <mxPoint y="1920" as="sourcePoint" />
            <mxPoint y="710" as="targetPoint" />
          </mxGeometry>
        </mxCell>
        <mxCell id="I6mruvfcVdSGAULZI7gl-15" value="" style="endArrow=classic;html=1;rounded=0;" parent="1" source="I6mruvfcVdSGAULZI7gl-49" edge="1">
          <mxGeometry width="50" height="50" relative="1" as="geometry">
            <mxPoint y="800" as="sourcePoint" />
            <mxPoint x="120" y="800" as="targetPoint" />
          </mxGeometry>
        </mxCell>
        <mxCell id="I6mruvfcVdSGAULZI7gl-18" value="" style="endArrow=classic;html=1;rounded=0;" parent="1" edge="1">
          <mxGeometry width="50" height="50" relative="1" as="geometry">
            <mxPoint x="125" y="880" as="sourcePoint" />
            <mxPoint x="125" y="920" as="targetPoint" />
            <Array as="points">
              <mxPoint x="145" y="880" />
              <mxPoint x="145" y="920" />
            </Array>
          </mxGeometry>
        </mxCell>
        <mxCell id="I6mruvfcVdSGAULZI7gl-20" value="MissingInfoMessage" style="rounded=0;whiteSpace=wrap;html=1;" parent="1" vertex="1">
          <mxGeometry x="203" y="670" width="117" height="40" as="geometry" />
        </mxCell>
        <mxCell id="I6mruvfcVdSGAULZI7gl-21" value="" style="endArrow=none;dashed=1;html=1;rounded=0;entryX=0.5;entryY=1;entryDx=0;entryDy=0;" parent="1" source="I6mruvfcVdSGAULZI7gl-54" target="I6mruvfcVdSGAULZI7gl-20" edge="1">
          <mxGeometry width="50" height="50" relative="1" as="geometry">
            <mxPoint x="263" y="1921" as="sourcePoint" />
            <mxPoint x="260" y="720" as="targetPoint" />
          </mxGeometry>
        </mxCell>
        <mxCell id="I6mruvfcVdSGAULZI7gl-22" value="" style="endArrow=classic;html=1;rounded=0;" parent="1" source="I6mruvfcVdSGAULZI7gl-51" edge="1">
          <mxGeometry width="50" height="50" relative="1" as="geometry">
            <mxPoint x="120" y="970" as="sourcePoint" />
            <mxPoint x="260" y="960" as="targetPoint" />
          </mxGeometry>
        </mxCell>
        <mxCell id="I6mruvfcVdSGAULZI7gl-23" value="" style="endArrow=classic;html=1;rounded=0;" parent="1" target="I6mruvfcVdSGAULZI7gl-56" edge="1">
          <mxGeometry width="50" height="50" relative="1" as="geometry">
            <mxPoint x="-120" y="1119" as="sourcePoint" />
            <mxPoint x="400" y="1119" as="targetPoint" />
          </mxGeometry>
        </mxCell>
        <mxCell id="I6mruvfcVdSGAULZI7gl-24" value="" style="endArrow=classic;html=1;rounded=0;" parent="1" edge="1">
          <mxGeometry width="50" height="50" relative="1" as="geometry">
            <mxPoint x="126" y="1000" as="sourcePoint" />
            <mxPoint x="126" y="1040" as="targetPoint" />
            <Array as="points">
              <mxPoint x="146" y="1000" />
              <mxPoint x="146" y="1040" />
            </Array>
          </mxGeometry>
        </mxCell>
        <mxCell id="I6mruvfcVdSGAULZI7gl-25" value="validateQuizForm()" style="text;html=1;strokeColor=none;fillColor=none;align=center;verticalAlign=middle;whiteSpace=wrap;rounded=0;" parent="1" vertex="1">
          <mxGeometry x="187" y="1010" width="40" height="20" as="geometry" />
        </mxCell>
        <mxCell id="I6mruvfcVdSGAULZI7gl-27" value="" style="endArrow=none;dashed=1;html=1;rounded=0;entryX=0.5;entryY=1;entryDx=0;entryDy=0;" parent="1" source="I6mruvfcVdSGAULZI7gl-57" target="I6mruvfcVdSGAULZI7gl-11" edge="1">
          <mxGeometry width="50" height="50" relative="1" as="geometry">
            <mxPoint x="520" y="1920" as="sourcePoint" />
            <mxPoint x="340" y="860" as="targetPoint" />
          </mxGeometry>
        </mxCell>
        <mxCell id="I6mruvfcVdSGAULZI7gl-28" value="" style="endArrow=none;dashed=1;html=1;rounded=0;" parent="1" source="I6mruvfcVdSGAULZI7gl-59" edge="1">
          <mxGeometry width="50" height="50" relative="1" as="geometry">
            <mxPoint x="640" y="1922.13330078125" as="sourcePoint" />
            <mxPoint x="640" y="710" as="targetPoint" />
          </mxGeometry>
        </mxCell>
        <mxCell id="I6mruvfcVdSGAULZI7gl-29" value="" style="endArrow=classic;html=1;rounded=0;" parent="1" source="I6mruvfcVdSGAULZI7gl-51" edge="1">
          <mxGeometry width="50" height="50" relative="1" as="geometry">
            <mxPoint x="120" y="1240" as="sourcePoint" />
            <mxPoint x="640" y="1240" as="targetPoint" />
          </mxGeometry>
        </mxCell>
        <mxCell id="I6mruvfcVdSGAULZI7gl-30" value="" style="endArrow=classic;html=1;rounded=0;" parent="1" source="I6mruvfcVdSGAULZI7gl-51" edge="1">
          <mxGeometry width="50" height="50" relative="1" as="geometry">
            <mxPoint x="120" y="1280" as="sourcePoint" />
            <mxPoint x="520" y="1280" as="targetPoint" />
          </mxGeometry>
        </mxCell>
        <mxCell id="I6mruvfcVdSGAULZI7gl-31" value="validateFileSize()" style="text;html=1;strokeColor=none;fillColor=none;align=center;verticalAlign=middle;whiteSpace=wrap;rounded=0;" parent="1" vertex="1">
          <mxGeometry x="427" y="1255" width="60" height="30" as="geometry" />
        </mxCell>
        <mxCell id="I6mruvfcVdSGAULZI7gl-35" value="" style="endArrow=classic;html=1;rounded=0;" parent="1" edge="1">
          <mxGeometry width="50" height="50" relative="1" as="geometry">
            <mxPoint x="927" y="1520" as="sourcePoint" />
            <mxPoint x="927" y="1560" as="targetPoint" />
            <Array as="points">
              <mxPoint x="967" y="1520" />
              <mxPoint x="967" y="1560" />
            </Array>
          </mxGeometry>
        </mxCell>
        <mxCell id="I6mruvfcVdSGAULZI7gl-36" value="" style="endArrow=none;dashed=1;html=1;rounded=0;entryX=0.5;entryY=1;entryDx=0;entryDy=0;" parent="1" source="I6mruvfcVdSGAULZI7gl-67" target="tIvDFnSH6BUCY3AO30Lf-29" edge="1">
          <mxGeometry width="50" height="50" relative="1" as="geometry">
            <mxPoint x="1042" y="1920" as="sourcePoint" />
            <mxPoint x="660" y="930" as="targetPoint" />
          </mxGeometry>
        </mxCell>
        <mxCell id="I6mruvfcVdSGAULZI7gl-37" value="" style="endArrow=classic;html=1;rounded=0;" parent="1" edge="1">
          <mxGeometry width="50" height="50" relative="1" as="geometry">
            <mxPoint x="-120" y="1678" as="sourcePoint" />
            <mxPoint x="1040" y="1680" as="targetPoint" />
          </mxGeometry>
        </mxCell>
        <mxCell id="I6mruvfcVdSGAULZI7gl-39" value="" style="endArrow=classic;html=1;rounded=0;dashed=1;" parent="1" target="I6mruvfcVdSGAULZI7gl-51" edge="1">
          <mxGeometry width="50" height="50" relative="1" as="geometry">
            <mxPoint x="1040" y="1718" as="sourcePoint" />
            <mxPoint x="120" y="1718" as="targetPoint" />
          </mxGeometry>
        </mxCell>
        <mxCell id="I6mruvfcVdSGAULZI7gl-40" value="returnTour()" style="text;html=1;strokeColor=none;fillColor=none;align=center;verticalAlign=middle;whiteSpace=wrap;rounded=0;" parent="1" vertex="1">
          <mxGeometry x="950" y="1690" width="60" height="30" as="geometry" />
        </mxCell>
        <mxCell id="I6mruvfcVdSGAULZI7gl-41" value="" style="endArrow=classic;html=1;rounded=0;" parent="1" source="I6mruvfcVdSGAULZI7gl-51" edge="1">
          <mxGeometry width="50" height="50" relative="1" as="geometry">
            <mxPoint x="120" y="1760" as="sourcePoint" />
            <mxPoint x="1040" y="1760" as="targetPoint" />
          </mxGeometry>
        </mxCell>
        <mxCell id="I6mruvfcVdSGAULZI7gl-42" value="" style="endArrow=classic;html=1;rounded=0;" parent="1" source="I6mruvfcVdSGAULZI7gl-67" edge="1">
          <mxGeometry width="50" height="50" relative="1" as="geometry">
            <mxPoint x="1040" y="1640" as="sourcePoint" />
            <mxPoint x="1160" y="1640" as="targetPoint" />
          </mxGeometry>
        </mxCell>
        <mxCell id="I6mruvfcVdSGAULZI7gl-43" value="getTours()" style="text;html=1;strokeColor=none;fillColor=none;align=center;verticalAlign=middle;whiteSpace=wrap;rounded=0;" parent="1" vertex="1">
          <mxGeometry x="1069" y="1613" width="60" height="30" as="geometry" />
        </mxCell>
        <mxCell id="I6mruvfcVdSGAULZI7gl-44" value="" style="endArrow=classic;html=1;rounded=0;" parent="1" source="I6mruvfcVdSGAULZI7gl-51" edge="1">
          <mxGeometry width="50" height="50" relative="1" as="geometry">
            <mxPoint x="120" y="1800" as="sourcePoint" />
            <mxPoint x="920" y="1800" as="targetPoint" />
          </mxGeometry>
        </mxCell>
        <mxCell id="I6mruvfcVdSGAULZI7gl-45" value="SuccessMessage" style="html=1;whiteSpace=wrap;" parent="1" vertex="1">
          <mxGeometry x="1230" y="669" width="105" height="40" as="geometry" />
        </mxCell>
        <mxCell id="I6mruvfcVdSGAULZI7gl-46" value="" style="endArrow=none;dashed=1;html=1;rounded=0;entryX=0.5;entryY=1;entryDx=0;entryDy=0;" parent="1" target="I6mruvfcVdSGAULZI7gl-45" edge="1">
          <mxGeometry width="50" height="50" relative="1" as="geometry">
            <mxPoint x="1283" y="1922" as="sourcePoint" />
            <mxPoint x="810" y="940" as="targetPoint" />
          </mxGeometry>
        </mxCell>
        <mxCell id="I6mruvfcVdSGAULZI7gl-47" value="" style="endArrow=classic;html=1;rounded=0;" parent="1" source="I6mruvfcVdSGAULZI7gl-51" edge="1">
          <mxGeometry width="50" height="50" relative="1" as="geometry">
            <mxPoint x="120" y="1840" as="sourcePoint" />
            <mxPoint x="1280" y="1840" as="targetPoint" />
          </mxGeometry>
        </mxCell>
        <mxCell id="I6mruvfcVdSGAULZI7gl-48" value="" style="endArrow=classic;html=1;rounded=0;" parent="1" source="I6mruvfcVdSGAULZI7gl-51" edge="1">
          <mxGeometry width="50" height="50" relative="1" as="geometry">
            <mxPoint x="1350" y="1970" as="sourcePoint" />
            <mxPoint x="1402.1331380208333" y="1880" as="targetPoint" />
          </mxGeometry>
        </mxCell>
        <mxCell id="I6mruvfcVdSGAULZI7gl-50" value="" style="endArrow=none;dashed=1;html=1;rounded=0;" parent="1" target="I6mruvfcVdSGAULZI7gl-49" edge="1">
          <mxGeometry width="50" height="50" relative="1" as="geometry">
            <mxPoint y="1920" as="sourcePoint" />
            <mxPoint y="710" as="targetPoint" />
          </mxGeometry>
        </mxCell>
        <mxCell id="I6mruvfcVdSGAULZI7gl-52" value="" style="endArrow=classic;html=1;rounded=0;" parent="1" target="I6mruvfcVdSGAULZI7gl-51" edge="1">
          <mxGeometry width="50" height="50" relative="1" as="geometry">
            <mxPoint x="-120" y="840" as="sourcePoint" />
            <mxPoint x="120" y="840" as="targetPoint" />
          </mxGeometry>
        </mxCell>
        <mxCell id="I6mruvfcVdSGAULZI7gl-55" value="" style="endArrow=none;dashed=1;html=1;rounded=0;entryX=0.5;entryY=1;entryDx=0;entryDy=0;" parent="1" target="I6mruvfcVdSGAULZI7gl-54" edge="1">
          <mxGeometry width="50" height="50" relative="1" as="geometry">
            <mxPoint x="263" y="1921" as="sourcePoint" />
            <mxPoint x="262" y="710" as="targetPoint" />
          </mxGeometry>
        </mxCell>
        <mxCell id="I6mruvfcVdSGAULZI7gl-58" value="" style="endArrow=none;dashed=1;html=1;rounded=0;entryX=0.5;entryY=1;entryDx=0;entryDy=0;" parent="1" target="I6mruvfcVdSGAULZI7gl-57" edge="1">
          <mxGeometry width="50" height="50" relative="1" as="geometry">
            <mxPoint x="520" y="1920" as="sourcePoint" />
            <mxPoint x="520" y="710" as="targetPoint" />
          </mxGeometry>
        </mxCell>
        <mxCell id="I6mruvfcVdSGAULZI7gl-60" value="" style="endArrow=none;dashed=1;html=1;rounded=0;" parent="1" target="I6mruvfcVdSGAULZI7gl-59" edge="1">
          <mxGeometry width="50" height="50" relative="1" as="geometry">
            <mxPoint x="640" y="1922.13330078125" as="sourcePoint" />
            <mxPoint x="640" y="710" as="targetPoint" />
          </mxGeometry>
        </mxCell>
        <mxCell id="I6mruvfcVdSGAULZI7gl-59" value="" style="html=1;points=[];perimeter=orthogonalPerimeter;outlineConnect=0;targetShapes=umlLifeline;portConstraint=eastwest;newEdgeStyle={&quot;edgeStyle&quot;:&quot;elbowEdgeStyle&quot;,&quot;elbow&quot;:&quot;vertical&quot;,&quot;curved&quot;:0,&quot;rounded&quot;:0};" parent="1" vertex="1">
          <mxGeometry x="635" y="1244" width="10" height="36" as="geometry" />
        </mxCell>
        <mxCell id="I6mruvfcVdSGAULZI7gl-62" value="" style="endArrow=none;dashed=1;html=1;rounded=0;entryX=0.5;entryY=1;entryDx=0;entryDy=0;" parent="1" target="I6mruvfcVdSGAULZI7gl-61" edge="1">
          <mxGeometry width="50" height="50" relative="1" as="geometry">
            <mxPoint x="760" y="1920" as="sourcePoint" />
            <mxPoint x="758" y="710" as="targetPoint" />
          </mxGeometry>
        </mxCell>
        <mxCell id="I6mruvfcVdSGAULZI7gl-66" value="" style="endArrow=none;dashed=1;html=1;rounded=0;entryX=0.5;entryY=1;entryDx=0;entryDy=0;" parent="1" target="I6mruvfcVdSGAULZI7gl-63" edge="1">
          <mxGeometry width="50" height="50" relative="1" as="geometry">
            <mxPoint x="920" y="1920" as="sourcePoint" />
            <mxPoint x="923" y="1460" as="targetPoint" />
          </mxGeometry>
        </mxCell>
        <mxCell id="I6mruvfcVdSGAULZI7gl-68" value="" style="endArrow=none;dashed=1;html=1;rounded=0;entryX=0.5;entryY=1;entryDx=0;entryDy=0;" parent="1" target="I6mruvfcVdSGAULZI7gl-67" edge="1">
          <mxGeometry width="50" height="50" relative="1" as="geometry">
            <mxPoint x="1042" y="1920" as="sourcePoint" />
            <mxPoint x="1042" y="710" as="targetPoint" />
          </mxGeometry>
        </mxCell>
        <mxCell id="I6mruvfcVdSGAULZI7gl-70" value="" style="endArrow=none;dashed=1;html=1;rounded=0;" parent="1" target="I6mruvfcVdSGAULZI7gl-69" edge="1">
          <mxGeometry width="50" height="50" relative="1" as="geometry">
            <mxPoint x="1160" y="1920" as="sourcePoint" />
            <mxPoint x="1160" y="710" as="targetPoint" />
          </mxGeometry>
        </mxCell>
        <mxCell id="I6mruvfcVdSGAULZI7gl-69" value="" style="html=1;points=[];perimeter=orthogonalPerimeter;outlineConnect=0;targetShapes=umlLifeline;portConstraint=eastwest;newEdgeStyle={&quot;edgeStyle&quot;:&quot;elbowEdgeStyle&quot;,&quot;elbow&quot;:&quot;vertical&quot;,&quot;curved&quot;:0,&quot;rounded&quot;:0};" parent="1" vertex="1">
          <mxGeometry x="1155" y="1643" width="10" height="37" as="geometry" />
        </mxCell>
        <mxCell id="I6mruvfcVdSGAULZI7gl-75" value="" style="endArrow=classic;html=1;rounded=0;" parent="1" source="I6mruvfcVdSGAULZI7gl-51" target="I6mruvfcVdSGAULZI7gl-74" edge="1">
          <mxGeometry width="50" height="50" relative="1" as="geometry">
            <mxPoint x="125" y="1880" as="sourcePoint" />
            <mxPoint x="1402.1331380208333" y="1880" as="targetPoint" />
          </mxGeometry>
        </mxCell>
        <mxCell id="I6mruvfcVdSGAULZI7gl-74" value="" style="html=1;points=[];perimeter=orthogonalPerimeter;outlineConnect=0;targetShapes=umlLifeline;portConstraint=eastwest;newEdgeStyle={&quot;edgeStyle&quot;:&quot;elbowEdgeStyle&quot;,&quot;elbow&quot;:&quot;vertical&quot;,&quot;curved&quot;:0,&quot;rounded&quot;:0};" parent="1" vertex="1">
          <mxGeometry x="1280" y="1840" width="10" height="30" as="geometry" />
        </mxCell>
        <mxCell id="I6mruvfcVdSGAULZI7gl-76" value="&lt;font color=&quot;#ff0000&quot; style=&quot;font-size: 11px;&quot;&gt;Alternative&lt;/font&gt;" style="shape=umlFrame;whiteSpace=wrap;html=1;pointerEvents=0;strokeWidth=2;align=left;" parent="1" vertex="1">
          <mxGeometry x="30" y="880" width="410" height="220" as="geometry" />
        </mxCell>
        <mxCell id="I6mruvfcVdSGAULZI7gl-79" value="" style="line;strokeWidth=2;fillColor=none;align=left;verticalAlign=middle;spacingTop=-1;spacingLeft=3;spacingRight=3;rotatable=0;labelPosition=right;points=[];portConstraint=eastwest;strokeColor=inherit;dashed=1;dashPattern=12 12;" parent="1" vertex="1">
          <mxGeometry x="30" y="1046" width="410" height="8" as="geometry" />
        </mxCell>
        <mxCell id="I6mruvfcVdSGAULZI7gl-80" value="&lt;font style=&quot;font-size: 11px;&quot; color=&quot;#ff0000&quot;&gt;Alternative&lt;/font&gt;" style="shape=umlFrame;whiteSpace=wrap;html=1;pointerEvents=0;strokeWidth=2;align=left;" parent="1" vertex="1">
          <mxGeometry x="30" y="1130" width="780" height="250" as="geometry" />
        </mxCell>
        <mxCell id="I6mruvfcVdSGAULZI7gl-82" value="" style="line;strokeWidth=2;fillColor=none;align=left;verticalAlign=middle;spacingTop=-1;spacingLeft=3;spacingRight=3;rotatable=0;labelPosition=right;points=[];portConstraint=eastwest;strokeColor=inherit;dashed=1;dashPattern=12 12;" parent="1" vertex="1">
          <mxGeometry x="30" y="1294" width="780" height="8" as="geometry" />
        </mxCell>
      </root>
    </mxGraphModel>
  </diagram>
</mxfile>
